<svg width="525px" height="528px" viewBox="0 0 525 528" version="1.1" xmlns="http://www.w3.org/2000/svg" xmlns:xlink="http://www.w3.org/1999/xlink" class="svg_graph">
    <g id="svg_graph" stroke="none" stroke-width="1" fill="none" fill-rule="evenodd">

        <defs>
            <path d="M53.3740234,516.958008 L53.3740234,518.154297 L49.9902344,518.154297 L49.9902344,527 L48.609375,527 L48.609375,518.154297 L45.2255859,518.154297 L45.2255859,516.958008 L53.3740234,516.958008 Z M54.9257812,516.958008 L56.2998047,516.958008 L56.2998047,527 L54.9257812,527 L54.9257812,516.958008 Z M58.4736328,516.958008 L60.421875,516.958008 L63.3066406,525.448242 L66.1708984,516.958008 L68.0986328,516.958008 L68.0986328,527 L66.8066406,527 L66.8066406,521.073242 C66.8066406,520.868163 66.8111979,520.528648 66.8203125,520.054688 C66.8294271,519.580727 66.8339844,519.072594 66.8339844,518.530273 L63.9697266,527 L62.6230469,527 L59.7382812,518.530273 L59.7382812,518.837891 C59.7382812,519.083986 59.7439778,519.458819 59.7553711,519.962402 C59.7667644,520.465986 59.7724609,520.836262 59.7724609,521.073242 L59.7724609,527 L58.4736328,527 L58.4736328,516.958008 Z M70.2998047,516.958008 L77.6210938,516.958008 L77.6210938,518.188477 L71.6259766,518.188477 L71.6259766,521.237305 L77.1699219,521.237305 L77.1699219,522.399414 L71.6259766,522.399414 L71.6259766,525.803711 L77.7236328,525.803711 L77.7236328,527 L70.2998047,527 L70.2998047,516.958008 Z" id="path-1"></path>
            <path d="M-21.4648438,452.140625 L-20.0908203,452.140625 L-20.0908203,462.182617 L-21.4648438,462.182617 L-21.4648438,452.140625 Z M-17.8828125,452.140625 L-16.2763672,452.140625 L-11.2041016,460.275391 L-11.2041016,452.140625 L-9.91210938,452.140625 L-9.91210938,462.182617 L-11.4365234,462.182617 L-16.5839844,454.054688 L-16.5839844,462.182617 L-17.8828125,462.182617 L-17.8828125,452.140625 Z M-3.54101562,451.867188 C-2.26952489,451.867188 -1.28288111,452.202145 -0.581054688,452.87207 C0.120771738,453.541996 0.510416279,454.303056 0.587890625,455.155273 L-0.73828125,455.155273 C-0.888672627,454.508135 -1.18831156,453.995445 -1.63720703,453.617188 C-2.0861025,453.23893 -2.71614178,453.049805 -3.52734375,453.049805 C-4.51628099,453.049805 -5.31493836,453.397295 -5.92333984,454.092285 C-6.53174132,454.787276 -6.8359375,455.852532 -6.8359375,457.288086 C-6.8359375,458.463873 -6.56136342,459.417477 -6.01220703,460.148926 C-5.46305064,460.880375 -4.64388565,461.246094 -3.5546875,461.246094 C-2.55207832,461.246094 -1.7887396,460.861006 -1.26464844,460.09082 C-0.986652256,459.685219 -0.779297559,459.152022 -0.642578125,458.491211 L0.68359375,458.491211 C0.565103574,459.548508 0.17318041,460.434892 -0.4921875,461.150391 C-1.28971753,462.011723 -2.36522761,462.442383 -3.71875,462.442383 C-4.8854225,462.442383 -5.86523041,462.089196 -6.65820312,461.382812 C-7.70182813,460.448563 -8.22363281,459.006195 -8.22363281,457.055664 C-8.22363281,455.574537 -7.83170965,454.360031 -7.04785156,453.412109 C-6.20019107,452.382156 -5.03125745,451.867188 -3.54101562,451.867188 Z M6.671875,451.867188 C8.44467032,451.867188 9.7571572,452.436843 10.609375,453.576172 C11.2747429,454.464848 11.6074219,455.601881 11.6074219,456.987305 C11.6074219,458.486661 11.2268918,459.733068 10.4658203,460.726562 C9.57258668,461.893235 8.2988364,462.476562 6.64453125,462.476562 C5.09960165,462.476562 3.88509557,461.966151 3.00097656,460.945312 C2.21256116,459.960933 1.81835938,458.716804 1.81835938,457.212891 C1.81835938,455.854811 2.15559559,454.692713 2.83007812,453.726562 C3.69596787,452.486973 4.97655402,451.867188 6.671875,451.867188 Z M6.80859375,461.259766 C8.00716745,461.259766 8.87418352,460.830245 9.40966797,459.971191 C9.94515242,459.112138 10.2128906,458.124355 10.2128906,457.007812 C10.2128906,455.827468 9.9041372,454.877282 9.28662109,454.157227 C8.66910499,453.437171 7.82487515,453.077148 6.75390625,453.077148 C5.71483855,453.077148 4.86719078,453.433753 4.2109375,454.146973 C3.55468422,454.860192 3.2265625,455.911777 3.2265625,457.301758 C3.2265625,458.413743 3.50797245,459.351396 4.07080078,460.114746 C4.63362912,460.878096 5.54621765,461.259766 6.80859375,461.259766 Z M13.1933594,452.140625 L15.1416016,452.140625 L18.0263672,460.630859 L20.890625,452.140625 L22.8183594,452.140625 L22.8183594,462.182617 L21.5263672,462.182617 L21.5263672,456.255859 C21.5263672,456.05078 21.5309244,455.711265 21.5400391,455.237305 C21.5491537,454.763344 21.5537109,454.255211 21.5537109,453.712891 L18.6894531,462.182617 L17.3427734,462.182617 L14.4580078,453.712891 L14.4580078,454.020508 C14.4580078,454.266603 14.4637044,454.641436 14.4750977,455.14502 C14.4864909,455.648603 14.4921875,456.018879 14.4921875,456.255859 L14.4921875,462.182617 L13.1933594,462.182617 L13.1933594,452.140625 Z M25.0195312,452.140625 L32.3408203,452.140625 L32.3408203,453.371094 L26.3457031,453.371094 L26.3457031,456.419922 L31.8896484,456.419922 L31.8896484,457.582031 L26.3457031,457.582031 L26.3457031,460.986328 L32.4433594,460.986328 L32.4433594,462.182617 L25.0195312,462.182617 L25.0195312,452.140625 Z" id="path-2"></path>
            <path d="M15.109375,13.296875 L13.3671875,8.2265625 L11.515625,13.296875 L15.109375,13.296875 Z M12.5546875,6.5234375 L14.3125,6.5234375 L18.4765625,18 L16.7734375,18 L15.609375,14.5625 L11.0703125,14.5625 L9.828125,18 L8.234375,18 L12.5546875,6.5234375 Z" id="path-3"></path>
            <path d="M13.53125,12.375 C14.1875033,12.375 14.6979148,12.2838551 15.0625,12.1015625 C15.6354195,11.8151027 15.921875,11.2994829 15.921875,10.5546875 C15.921875,9.80468375 15.6171905,9.29948047 15.0078125,9.0390625 C14.6640608,8.89322844 14.1536492,8.8203125 13.4765625,8.8203125 L10.703125,8.8203125 L10.703125,12.375 L13.53125,12.375 Z M14.0546875,17.671875 C15.0078173,17.671875 15.687498,17.3958361 16.09375,16.84375 C16.3489596,16.4947899 16.4765625,16.0729191 16.4765625,15.578125 C16.4765625,14.7447875 16.1041704,14.1770848 15.359375,13.875 C14.9635397,13.7135409 14.4401074,13.6328125 13.7890625,13.6328125 L10.703125,13.6328125 L10.703125,17.671875 L14.0546875,17.671875 Z M9.1796875,7.5234375 L14.109375,7.5234375 C15.4531317,7.5234375 16.4088513,7.92447516 16.9765625,8.7265625 C17.3098975,9.2005232 17.4765625,9.74739273 17.4765625,10.3671875 C17.4765625,11.0911495 17.2708354,11.6848935 16.859375,12.1484375 C16.6458323,12.3932304 16.3385437,12.6171865 15.9375,12.8203125 C16.5260446,13.044272 16.9661444,13.2968736 17.2578125,13.578125 C17.7734401,14.0781275 18.03125,14.7682248 18.03125,15.6484375 C18.03125,16.3880245 17.7994815,17.0572887 17.3359375,17.65625 C16.6432257,18.5520878 15.5416742,19 14.03125,19 L9.1796875,19 L9.1796875,7.5234375 Z" id="path-4"></path>
            <path d="M13.0546875,7.2109375 C14.5078198,7.2109375 15.6354127,7.59374617 16.4375,8.359375 C17.2395873,9.12500383 17.6848954,9.9947868 17.7734375,10.96875 L16.2578125,10.96875 C16.0859366,10.229163 15.7434921,9.64323133 15.2304688,9.2109375 C14.7174454,8.77864367 13.9974005,8.5625 13.0703125,8.5625 C11.9400985,8.5625 11.0273472,8.95963145 10.3320312,9.75390625 C9.63671527,10.5481811 9.2890625,11.7656168 9.2890625,13.40625 C9.2890625,14.7500067 9.60286145,15.8398396 10.2304688,16.6757812 C10.8580761,17.5117229 11.7942646,17.9296875 13.0390625,17.9296875 C14.1849016,17.9296875 15.0572887,17.4895877 15.65625,16.609375 C15.9739599,16.145831 16.2109367,15.5364621 16.3671875,14.78125 L17.8828125,14.78125 C17.7473952,15.9895894 17.299483,17.0026001 16.5390625,17.8203125 C15.6275996,18.8046924 14.3984452,19.296875 12.8515625,19.296875 C11.5182225,19.296875 10.398442,18.8932332 9.4921875,18.0859375 C8.2994732,17.0182238 7.703125,15.3698028 7.703125,13.140625 C7.703125,11.4479082 8.15103719,10.0599012 9.046875,8.9765625 C10.0156298,7.79947328 11.351554,7.2109375 13.0546875,7.2109375 Z" id="path-5"></path>
        </defs>
        <g id="svg_graph" stroke="none" stroke-width="1" fill="none" fill-rule="evenodd">
            <g id="TIME">
                <use fill="#000000" xlink:href="#path-1"></use>
                <use fill="#FFFFFF" xlink:href="#path-1"></use>
            </g>
            <g id="INCOME" transform="translate(5.489258, 457.171875) rotate(-90.000000) translate(-5.489258, -457.171875) ">
                <use fill="#000000" xlink:href="#path-2"></use>
                <use fill="#FFFFFF" xlink:href="#path-2"></use>
            </g>
            <path d="M27,18.5192308 L27,503.591941" id="Line" stroke="#FFFFFF" stroke-width="3" stroke-linecap="square"></path>
            <polygon id="Triangle" fill="#FFFFFF" fill-rule="nonzero" points="28.5 4 37 21 20 21"></polygon>
            <polygon id="Triangle-Copy" fill="#FFFFFF" fill-rule="nonzero" transform="translate(516.500000, 502.500000) rotate(90.000000) translate(-516.500000, -502.500000) " points="516.5 494 525 511 508 511"></polygon>
            <path d="M507.192243,504 L28.0515242,504" id="Line" stroke="#FFFFFF" stroke-width="3" stroke-linecap="square"></path>
            <path d="M29,501.5 C108.72847,395.005864 163.691135,314.926728 193.887996,261.262594 C224.084856,207.598459 254.746521,135.510928 285.87299,45" id="Shape" stroke="#FFFFFF" stroke-width="3" stroke-linecap="square" class="path path_a"></path>
            <path d="M29.5,500.5 L371.5,181.5" id="Shape" stroke="#FFFFFF" stroke-width="3" stroke-linecap="square" class="path path_b"></path>
            <path d="M29,503 C155.666667,389 293,324.666667 441,310" id="Shape" stroke="#FFFFFF" stroke-width="3" class="path path_c"></path>
            <circle id="Oval" fill="#FFFFFF" fill-rule="nonzero" cx="285.5" cy="44.5" r="4.5"></circle>
            <circle id="Oval" fill="#FFFFFF" fill-rule="nonzero" cx="373.5" cy="179.5" r="4.5"></circle>
            <circle id="Oval" fill="#FFFFFF" fill-rule="nonzero" cx="442.5" cy="309.5" r="4.5"></circle>
            <g class="marker marker_a" id="Group" transform="translate(282.000000, 0.000000)">
                <circle id="Oval-3" fill="#FFFFFF" fill-rule="nonzero" cx="13.5" cy="13.5" r="13.5"></circle>
                <g id="A">
                    <use fill="#000000" xlink:href="#path-3"></use>
                    <use fill="#EA0303" xlink:href="#path-3"></use>
                </g>
            </g>
            <g class="marker marker_b" id="Group" transform="translate(383.000000, 146.000000)">
                <circle id="Oval-3-Copy" fill="#FFFFFF" fill-rule="nonzero" cx="13.5" cy="13.5" r="13.5"></circle>
                <g id="B">
                    <use fill="#000000" xlink:href="#path-4"></use>
                    <use fill="#EA0303" xlink:href="#path-4"></use>
                </g>
            </g>
            <g class="marker marker_c" id="Group" transform="translate(458.000000, 293.000000)">
                <circle id="Oval-3-Copy-2" fill="#FFFFFF" fill-rule="nonzero" cx="13.5" cy="13.5" r="13.5"></circle>
                <g id="C">
                    <use fill="#000000" xlink:href="#path-5"></use>
                    <use fill="#EA0303" xlink:href="#path-5"></use>
                </g>
            </g>
        </g>

        <!--
        <path d="M47.4814453,527 L46.2509766,527 L46.2509766,517.135742 L47.4814453,517.135742 L47.4814453,527 Z M52.0634766,527 L50.8466797,527 L50.8466797,517.135742 L52.0429688,517.135742 L57.3955078,524.8125 L57.5048828,524.8125 L57.5048828,517.135742 L58.7216797,517.135742 L58.7216797,527 L57.5253906,527 L52.1728516,519.350586 L52.0634766,519.350586 L52.0634766,527 Z M66.0585938,527.232422 C64.7187433,527.232422 63.6580443,526.769861 62.8764648,525.844727 C62.0948854,524.919592 61.7041016,523.661792 61.7041016,522.071289 C61.7041016,520.476229 62.0937461,519.21615 62.8730469,518.291016 C63.6523476,517.365881 64.7119074,516.90332 66.0517578,516.90332 C67.0908255,516.90332 67.9794885,517.199541 68.7177734,517.791992 C69.4560584,518.384443 69.8981112,519.156896 70.0439453,520.109375 L68.7929688,520.109375 C68.6289054,519.471351 68.3007837,518.966636 67.8085938,518.595215 C67.3164038,518.223794 66.7307977,518.038086 66.0517578,518.038086 C65.1038364,518.038086 64.3530301,518.400387 63.7993164,519.125 C63.2456027,519.849613 62.96875,520.8317 62.96875,522.071289 C62.96875,523.306321 63.246742,524.286129 63.8027344,525.010742 C64.3587267,525.735355 65.1106723,526.097656 66.0585938,526.097656 C66.7467482,526.097656 67.3357723,525.932456 67.8256836,525.602051 C68.3155949,525.271645 68.6380201,524.821617 68.7929688,524.251953 L70.0439453,524.251953 C69.879882,525.158859 69.4366898,525.882322 68.7143555,526.422363 C67.9920211,526.962405 67.1067761,527.232422 66.0585938,527.232422 Z M77.1074219,516.90332 C78.5110747,516.90332 79.6139283,517.368159 80.4160156,518.297852 C81.218103,519.227544 81.6191406,520.483065 81.6191406,522.064453 C81.6191406,523.641284 81.2192423,524.896805 80.4194336,525.831055 C79.6196249,526.765304 78.515632,527.232422 77.1074219,527.232422 C75.6946544,527.232422 74.5861043,526.765304 73.7817383,525.831055 C72.9773723,524.896805 72.5751953,523.641284 72.5751953,522.064453 C72.5751953,520.478508 72.9819295,519.221847 73.7954102,518.294434 C74.6088908,517.36702 75.7128837,516.90332 77.1074219,516.90332 Z M77.1074219,518.038086 C76.1048127,518.038086 75.3095733,518.400387 74.7216797,519.125 C74.1337861,519.849613 73.8398438,520.829421 73.8398438,522.064453 C73.8398438,523.285813 74.1280896,524.263343 74.7045898,524.99707 C75.2810901,525.730798 76.0820261,526.097656 77.1074219,526.097656 C78.1191457,526.097656 78.9132458,525.730798 79.4897461,524.99707 C80.0662464,524.263343 80.3544922,523.285813 80.3544922,522.064453 C80.3544922,520.829421 80.0651071,519.849613 79.4863281,519.125 C78.9075492,518.400387 78.1145884,518.038086 77.1074219,518.038086 Z M94.3222656,527 L93.1738281,527 L93.1738281,519.466797 L93.0917969,519.466797 L89.9814453,526.931641 L88.9423828,526.931641 L85.8320312,519.466797 L85.75,519.466797 L85.75,527 L84.6015625,527 L84.6015625,517.135742 L86.0302734,517.135742 L89.4072266,525.297852 L89.5166016,525.297852 L92.8935547,517.135742 L94.3222656,517.135742 L94.3222656,527 Z M103.798828,525.892578 C103.798828,525.892578 103.798828,525.948404 103.798828,526.060059 C103.798828,526.171713 103.798828,526.300455 103.798828,526.446289 C103.798828,526.592123 103.798828,526.720865 103.798828,526.83252 C103.798828,526.944174 103.798828,527 103.798828,527 L97.6875,527 L97.6875,517.135742 L103.798828,517.135742 L103.798828,518.243164 L98.9179688,518.243164 L98.9179688,521.408203 L103.545898,521.408203 L103.545898,522.501953 L98.9179688,522.501953 L98.9179688,525.892578 L103.798828,525.892578 Z" id="Income" fill="#FFFFFF"></path>
        <path d="M-6.95507812,473 L-8.18554688,473 L-8.18554688,464.243164 L-11.3642578,464.243164 L-11.3642578,463.135742 L-3.77636719,463.135742 L-3.77636719,464.243164 L-6.95507812,464.243164 L-6.95507812,473 Z M0.204101562,473 L-1.02636719,473 L-1.02636719,463.135742 L0.204101562,463.135742 L0.204101562,473 Z M13.2900391,473 L12.1416016,473 L12.1416016,465.466797 L12.0595703,465.466797 L8.94921875,472.931641 L7.91015625,472.931641 L4.79980469,465.466797 L4.71777344,465.466797 L4.71777344,473 L3.56933594,473 L3.56933594,463.135742 L4.99804688,463.135742 L8.375,471.297852 L8.484375,471.297852 L11.8613281,463.135742 L13.2900391,463.135742 L13.2900391,473 Z M22.7666016,471.892578 C22.7666016,471.892578 22.7666016,471.948404 22.7666016,472.060059 C22.7666016,472.171713 22.7666016,472.300455 22.7666016,472.446289 C22.7666016,472.592123 22.7666016,472.720865 22.7666016,472.83252 C22.7666016,472.944174 22.7666016,473 22.7666016,473 L16.6552734,473 L16.6552734,463.135742 L22.7666016,463.135742 L22.7666016,464.243164 L17.8857422,464.243164 L17.8857422,467.408203 L22.5136719,467.408203 L22.5136719,468.501953 L17.8857422,468.501953 L17.8857422,471.892578 L22.7666016,471.892578 Z" id="Time" fill="#FFFFFF" transform="translate(5.701172, 468.067871) rotate(-90.000000) translate(-5.701172, -468.067871) "></path>

        <path d="M28,17.5192308 L28,502.591941" id="Line" stroke="#FFFFFF" stroke-width="3" stroke-linecap="square"></path>
        <polygon id="Triangle" fill="#FFFFFF" fill-rule="nonzero" points="28.5 4 37 21 20 21"></polygon>
        <polygon id="Triangle-Copy" fill="#FFFFFF" fill-rule="nonzero" transform="translate(516.500000, 502.500000) rotate(90.000000) translate(-516.500000, -502.500000) " points="516.5 494 525 511 508 511"></polygon>
        <path d="M507.192243,503 L28.0515242,503" id="Line-Copy" stroke="#FFFFFF" stroke-width="3" stroke-linecap="square"></path>
        <path d="M29,501.5 C108.72847,395.005864 163.691135,314.926728 193.887996,261.262594 C224.084856,207.598459 254.746521,135.510928 285.87299,45" id="Shape" stroke="#FFFFFF" stroke-width="3" stroke-linecap="square" class="path path_a"></path>
        <path d="M29,503 C126.769984,418.5512 194.169984,355.049235 231.2,312.494105 C268.230016,269.938975 305.830016,212.774274 344,141" id="Shape" stroke="#FFFFFF" stroke-width="3" stroke-linecap="square" class="path path_b"></path>
        <path d="M32,502 C153.979694,447.411549 238.069218,406.363317 284.268571,378.855305 C330.467925,351.347293 377.378401,314.395525 425,268" id="Shape" stroke="#FFFFFF" stroke-width="3" stroke-linecap="square" class="path path_c"></path>
        <circle id="Oval" fill="#FFFFFF" fill-rule="nonzero" cx="285.5" cy="44.5" r="4.5"></circle>
        <circle id="Oval" fill="#FFFFFF" fill-rule="nonzero" cx="344.5" cy="139.5" r="4.5"></circle>
        <circle id="Oval" fill="#FFFFFF" fill-rule="nonzero" cx="425.5" cy="267.5" r="4.5"></circle>
        <g class="marker marker_a" id="Group" transform="translate(282.000000, 0.000000)">
            <circle id="Oval-3" fill="#FFFFFF" fill-rule="nonzero" cx="13.5" cy="13.5" r="13.5"></circle>
            <g id="A" transform="translate(8.000000, 2.000000)" fill="#EA0303" font-family=".AppleSystemUIFont" font-size="16" font-weight="normal">
                <text>
                    <tspan x="0" y="15">A</tspan>
                </text>
            </g>
        </g>
        <g class="marker marker_b" id="Group" transform="translate(345.000000, 98.000000)">
            <circle id="Oval-3-Copy" fill="#FFFFFF" fill-rule="nonzero" cx="13.5" cy="13.5" r="13.5"></circle>
            <g id="B" transform="translate(9.000000, 3.000000)" fill="#EA0303" font-family=".AppleSystemUIFont" font-size="16" font-weight="normal">
                <text>
                    <tspan x="0" y="15">B</tspan>
                </text>
            </g>
        </g>
        <g class="marker marker_c" id="Group" transform="translate(434.000000, 234.000000)">
            <circle id="Oval-3-Copy-2" fill="#FFFFFF" fill-rule="nonzero" cx="13.5" cy="13.5" r="13.5"></circle>
            <g id="C" transform="translate(7.000000, 3.000000)" fill="#EA0303" font-family=".AppleSystemUIFont" font-size="16" font-weight="normal">
                <text>
                    <tspan x="0" y="15">C</tspan>
                </text>
            </g>
        </g>
        -->

        <!--
        <path d="M8,17.5192308 L8,502.591941" id="Line" stroke="#FFFFFF" stroke-width="3" stroke-linecap="square"></path>
        <polygon id="Triangle" fill="#FFFFFF" points="8.5 4 17 21 0 21"></polygon>
        <polygon id="Triangle-Copy" fill="#FFFFFF" transform="translate(496.500000, 502.500000) rotate(-270.000000) translate(-496.500000, -502.500000) " points="496.5 494 505 511 488 511"></polygon>
        <path d="M487.192243,503 L8.05152423,503" id="Line-Copy" stroke="#FFFFFF" stroke-width="3" stroke-linecap="square"></path>
        <path d="M9,501.5 C88.7284702,395.005864 143.691135,314.926728 173.887996,261.262594 C204.084856,207.598459 234.746521,135.510928 265.87299,45" class="path path_a" stroke="#FFFFFF" stroke-width="3" stroke-linecap="square"></path>
        <path d="M9,503 C106.769984,418.5512 174.169984,355.049235 211.2,312.494105 C248.230016,269.938975 285.830016,212.774274 324,141" class="path path_b" stroke="#FFFFFF" stroke-width="3" stroke-linecap="square"></path>
        <path d="M12,502 C133.979694,447.411549 218.069218,406.363317 264.268571,378.855305 C310.467925,351.347293 357.378401,314.395525 405,268" class="path path_c" stroke="#FFFFFF" stroke-width="3" stroke-linecap="square"></path>
        <circle class="circle circle_a" fill="#FFFFFF" cx="265.5" cy="44.5" r="4.5"></circle>
        <circle class="circle circle_b" fill="#FFFFFF" cx="324.5" cy="139.5" r="4.5"></circle>
        <circle class="circle circle_c" fill="#FFFFFF" cx="405.5" cy="267.5" r="4.5"></circle>
        <g class="marker marker_a" transform="translate(262.000000, 0.000000)">
            <circle id="Oval-3" fill="#FFFFFF" cx="13.5" cy="13.5" r="13.5"></circle>
            <text id="A" font-family=".AppleSystemUIFont" font-size="16" font-weight="normal" fill="#EA0303">
                <tspan x="8" y="17">A</tspan>
            </text>
        </g>
        <g class="marker marker_b" transform="translate(325.000000, 98.000000)">
            <circle id="Oval-3-Copy" fill="#FFFFFF" cx="13.5" cy="13.5" r="13.5"></circle>
            <text id="B" font-family=".AppleSystemUIFont" font-size="16" font-weight="normal" fill="#EA0303">
                <tspan x="9" y="18">B</tspan>
            </text>
        </g>
        <g class="marker marker_c" transform="translate(414.000000, 234.000000)">
            <circle id="Oval-3-Copy-2" fill="#FFFFFF" cx="13.5" cy="13.5" r="13.5"></circle>
            <text id="C" font-family=".AppleSystemUIFont" font-size="16" font-weight="normal" fill="#EA0303">
                <tspan x="7" y="18">C</tspan>
            </text>
        </g> -->
    </g>
</svg>
