<svg xmlns="http://www.w3.org/2000/svg" xmlns:xlink="http://www.w3.org/1999/xlink" width="93" height="233" viewBox="0 0 93 233"><svg width="93" height="46" viewBox="-5 -5 93 46" id="logo_black" y="0"><title>logo_black</title><g transform="translate(1 1)" fill="none" fill-rule="evenodd"><path d="M4.172 24.836c.268 2.346 1.332 3.969 3.19 4.868.953.457 2.054.685 3.303.685 2.38 0 4.143-.776 5.288-2.33 1.146-1.554 1.719-3.275 1.719-5.165 0-2.285-.68-4.053-2.042-5.302-1.36-1.25-2.994-1.874-4.898-1.874-1.383 0-2.57.274-3.559.822-.989.549-1.833 1.31-2.532 2.286l-3.48-.205L3.593 1h16.6v3.976H6.604l-1.361 9.096c.743-.579 1.45-1.013 2.119-1.303 1.19-.502 2.566-.754 4.129-.754 2.93 0 5.413.968 7.45 2.903C20.98 16.853 22 19.305 22 22.277c0 3.093-.933 5.82-2.8 8.181C17.334 32.82 14.355 34 10.265 34c-2.604 0-4.906-.75-6.906-2.25S.238 27.943 0 24.835h4.172z" fill="#000"></path><path d="M4.172 24.836c.268 2.346 1.332 3.969 3.19 4.868.953.457 2.054.685 3.303.685 2.38 0 4.143-.776 5.288-2.33 1.146-1.554 1.719-3.275 1.719-5.165 0-2.285-.68-4.053-2.042-5.302-1.36-1.25-2.994-1.874-4.898-1.874-1.383 0-2.57.274-3.559.822-.989.549-1.833 1.31-2.532 2.286l-3.48-.205L3.593 1h16.6v3.976H6.604l-1.361 9.096c.743-.579 1.45-1.013 2.119-1.303 1.19-.502 2.566-.754 4.129-.754 2.93 0 5.413.968 7.45 2.903C20.98 16.853 22 19.305 22 22.277c0 3.093-.933 5.82-2.8 8.181C17.334 32.82 14.355 34 10.265 34c-2.604 0-4.906-.75-6.906-2.25S.238 27.943 0 24.835h4.172z" stroke="#000" stroke-width=".8"></path><path d="M28.7 24.83c.984-2.034 2.908-3.883 5.767-5.545l4.267-2.472c1.91-1.114 3.252-2.065 4.022-2.853 1.214-1.234 1.822-2.647 1.822-4.239 0-1.86-.556-3.336-1.667-4.429-1.111-1.093-2.593-1.64-4.444-1.64-2.741 0-4.637 1.043-5.69 3.127-.562 1.116-.873 2.665-.933 4.645h-4.066c.044-2.776.555-5.04 1.533-6.792C31.044 1.545 34.103 0 38.489 0c3.644 0 6.307.987 7.989 2.962C48.159 4.937 49 7.134 49 9.553c0 2.554-.896 4.736-2.689 6.547-1.036 1.055-2.896 2.331-5.578 3.83l-3.044 1.692c-1.452.802-2.593 1.567-3.422 2.294-1.482 1.292-2.416 2.725-2.8 4.298h17.378V32H27c.148-2.746.715-5.136 1.7-7.17" fill="#000"></path><path d="M28.7 24.83c.984-2.034 2.908-3.883 5.767-5.545l4.267-2.472c1.91-1.114 3.252-2.065 4.022-2.853 1.214-1.234 1.822-2.647 1.822-4.239 0-1.86-.556-3.336-1.667-4.429-1.111-1.093-2.593-1.64-4.444-1.64-2.741 0-4.637 1.043-5.69 3.127-.562 1.116-.873 2.665-.933 4.645h-4.066c.044-2.776.555-5.04 1.533-6.792C31.044 1.545 34.103 0 38.489 0c3.644 0 6.307.987 7.989 2.962C48.159 4.937 49 7.134 49 9.553c0 2.554-.896 4.736-2.689 6.547-1.036 1.055-2.896 2.331-5.578 3.83l-3.044 1.692c-1.452.802-2.593 1.567-3.422 2.294-1.482 1.292-2.416 2.725-2.8 4.298h17.378V32H27c.148-2.746.715-5.136 1.7-7.17z" stroke="#000" stroke-width=".8"></path><path d="M56 31h26" stroke="#F00" stroke-width="5.718"></path><path fill="#000" d="M77.792 26L56 4.208 59.208 1 81 22.792z"></path><path fill="#000" d="M59.208 26L56 22.792 77.792 1 81 4.208z"></path></g></svg><svg width="93" height="46" viewBox="-5 -5 93 46" id="logo_white" y="46"><title>logo_white</title><g transform="translate(1 1)" fill="none" fill-rule="evenodd"><path d="M4.172 24.836c.268 2.346 1.332 3.969 3.19 4.868.953.457 2.054.685 3.303.685 2.38 0 4.143-.776 5.288-2.33 1.146-1.554 1.719-3.275 1.719-5.165 0-2.285-.68-4.053-2.042-5.302-1.36-1.25-2.994-1.874-4.898-1.874-1.383 0-2.57.274-3.559.822-.989.549-1.833 1.31-2.532 2.286l-3.48-.205L3.593 1h16.6v3.976H6.604l-1.361 9.096c.743-.579 1.45-1.013 2.119-1.303 1.19-.502 2.566-.754 4.129-.754 2.93 0 5.413.968 7.45 2.903C20.98 16.853 22 19.305 22 22.277c0 3.093-.933 5.82-2.8 8.181C17.334 32.82 14.355 34 10.265 34c-2.604 0-4.906-.75-6.906-2.25S.238 27.943 0 24.835h4.172z" fill="#FFF"></path><path d="M4.172 24.836c.268 2.346 1.332 3.969 3.19 4.868.953.457 2.054.685 3.303.685 2.38 0 4.143-.776 5.288-2.33 1.146-1.554 1.719-3.275 1.719-5.165 0-2.285-.68-4.053-2.042-5.302-1.36-1.25-2.994-1.874-4.898-1.874-1.383 0-2.57.274-3.559.822-.989.549-1.833 1.31-2.532 2.286l-3.48-.205L3.593 1h16.6v3.976H6.604l-1.361 9.096c.743-.579 1.45-1.013 2.119-1.303 1.19-.502 2.566-.754 4.129-.754 2.93 0 5.413.968 7.45 2.903C20.98 16.853 22 19.305 22 22.277c0 3.093-.933 5.82-2.8 8.181C17.334 32.82 14.355 34 10.265 34c-2.604 0-4.906-.75-6.906-2.25S.238 27.943 0 24.835h4.172z" stroke="#FFF" stroke-width=".8"></path><path d="M28.7 24.83c.984-2.034 2.908-3.883 5.767-5.545l4.267-2.472c1.91-1.114 3.252-2.065 4.022-2.853 1.214-1.234 1.822-2.647 1.822-4.239 0-1.86-.556-3.336-1.667-4.429-1.111-1.093-2.593-1.64-4.444-1.64-2.741 0-4.637 1.043-5.69 3.127-.562 1.116-.873 2.665-.933 4.645h-4.066c.044-2.776.555-5.04 1.533-6.792C31.044 1.545 34.103 0 38.489 0c3.644 0 6.307.987 7.989 2.962C48.159 4.937 49 7.134 49 9.553c0 2.554-.896 4.736-2.689 6.547-1.036 1.055-2.896 2.331-5.578 3.83l-3.044 1.692c-1.452.802-2.593 1.567-3.422 2.294-1.482 1.292-2.416 2.725-2.8 4.298h17.378V32H27c.148-2.746.715-5.136 1.7-7.17" fill="#FFF"></path><path d="M28.7 24.83c.984-2.034 2.908-3.883 5.767-5.545l4.267-2.472c1.91-1.114 3.252-2.065 4.022-2.853 1.214-1.234 1.822-2.647 1.822-4.239 0-1.86-.556-3.336-1.667-4.429-1.111-1.093-2.593-1.64-4.444-1.64-2.741 0-4.637 1.043-5.69 3.127-.562 1.116-.873 2.665-.933 4.645h-4.066c.044-2.776.555-5.04 1.533-6.792C31.044 1.545 34.103 0 38.489 0c3.644 0 6.307.987 7.989 2.962C48.159 4.937 49 7.134 49 9.553c0 2.554-.896 4.736-2.689 6.547-1.036 1.055-2.896 2.331-5.578 3.83l-3.044 1.692c-1.452.802-2.593 1.567-3.422 2.294-1.482 1.292-2.416 2.725-2.8 4.298h17.378V32H27c.148-2.746.715-5.136 1.7-7.17z" stroke="#FFF" stroke-width=".8"></path><path d="M56 31h26" stroke="#F00" stroke-width="5.718"></path><path fill="#FFF" d="M77.792 26L56 4.208 59.208 1 81 22.792z"></path><path fill="#FFF" d="M59.208 26L56 22.792 77.792 1 81 4.208z"></path></g></svg><svg width="30" height="24" viewBox="-5 -5 30 24" id="mobile_handle" y="92"><title>mobile_handle</title><g fill="#FF0606" fill-rule="nonzero"><path d="M0 12h20v2H0zM0 6h20v2H0zM0 0h20v2H0z"></path></g></svg><svg width="30" height="30" viewBox="-5 -5 30 30" id="social_facebook" y="116"><title>social_facebook</title><path d="M20 1.25v17.5c0 .339-.124.632-.371.879s-.54.371-.879.371h-5v-7.773h2.5l.42-2.881h-2.92V7.08c0-.417.106-.736.317-.957.212-.221.523-.332.933-.332h1.875V3.193c-.56-.09-1.243-.136-2.05-.136-1.342 0-2.366.34-3.072 1.02-.706.68-1.06 1.607-1.06 2.778v2.49h-2.5v2.882h2.5V20H1.25c-.339 0-.632-.124-.879-.371A1.201 1.201 0 0 1 0 18.75V1.25C0 .911.124.618.371.371S.911 0 1.25 0h17.5c.339 0 .632.124.879.371s.371.54.371.879z" fill="#FFF" fill-rule="evenodd"></path></svg><svg width="30" height="30" viewBox="-5 -5 30 30" id="social_instagram" y="146"><title>social_instagram</title><path d="M17.08 0c.807 0 1.496.285 2.066.854.57.57.854 1.259.854 2.066v14.16c0 .807-.285 1.496-.854 2.066-.57.57-1.259.854-2.066.854H2.92a2.814 2.814 0 0 1-2.066-.854A2.814 2.814 0 0 1 0 17.08V2.92C0 2.113.285 1.424.854.854A2.814 2.814 0 0 1 2.92 0h14.16zm-4.434 7.354A3.589 3.589 0 0 0 10 6.25a3.613 3.613 0 0 0-2.651 1.099A3.613 3.613 0 0 0 6.25 10c0 1.035.366 1.919 1.099 2.651A3.613 3.613 0 0 0 10 13.75a3.613 3.613 0 0 0 2.651-1.099A3.613 3.613 0 0 0 13.75 10a3.589 3.589 0 0 0-1.104-2.646zM17.92 17.5V8.75h-2.217c.085.384.127.8.127 1.25 0 1.055-.26 2.03-.781 2.925a5.78 5.78 0 0 1-2.124 2.124c-.895.52-1.87.781-2.925.781-1.055 0-2.03-.26-2.925-.781a5.78 5.78 0 0 1-2.124-2.124A5.714 5.714 0 0 1 4.17 10c0-.45.042-.866.127-1.25H2.08v8.75c0 .117.04.216.122.298.082.081.18.122.298.122h15c.117 0 .216-.04.298-.122a.405.405 0 0 0 .122-.298zm0-12.5V2.5a.405.405 0 0 0-.122-.298.405.405 0 0 0-.298-.122H15a.405.405 0 0 0-.298.122.405.405 0 0 0-.122.298V5c0 .117.04.216.122.298.082.081.18.122.298.122h2.5c.117 0 .216-.04.298-.122A.405.405 0 0 0 17.92 5z" fill="#FFF" fill-rule="evenodd"></path></svg><svg width="30" height="30" viewBox="-5 -5 30 30" id="social_linkedin" y="176"><title>social_linkedin</title><path d="M.42 7.08h4.16V20H.42V7.08zM7.08 20V10l-.068-2.92h4.101l.137 1.787a5.32 5.32 0 0 1 1.611-1.601c.632-.398 1.345-.596 2.139-.596 1.497 0 2.705.513 3.623 1.538C19.541 9.233 20 10.664 20 12.5V20h-4.17v-7.08c0-.99-.21-1.724-.63-2.202-.42-.479-.965-.718-1.636-.718-.664 0-1.215.216-1.655.65-.44.432-.659 1.05-.659 1.85V20H7.08zM2.48 5h-.029C1.73 5 1.14 4.78.684 4.34.228 3.902 0 3.357 0 2.706c0-.657.233-1.203.698-1.636C1.164.636 1.771.42 2.52.42c.735 0 1.33.217 1.782.65.452.433.685.979.698 1.636 0 .658-.231 1.205-.693 1.64C3.844 4.783 3.236 5 2.48 5z" fill="#FFF" fill-rule="evenodd"></path></svg><svg width="30" height="27" viewBox="-5 -5 30 27" id="social_twitter" y="206"><title>social_twitter</title><path d="M20 2.584a8.236 8.236 0 0 1-2.041 2.129v.537c0 .911-.116 1.828-.347 2.749a13.228 13.228 0 0 1-.996 2.686c-.433.869-.988 1.68-1.665 2.436a12.081 12.081 0 0 1-2.275 1.978c-.84.563-1.808 1.007-2.905 1.333a12.142 12.142 0 0 1-3.472.488c-2.468 0-4.567-.557-6.299-1.67a7.1 7.1 0 0 0 3.652-.459 9.468 9.468 0 0 0 2.412-1.416 3.88 3.88 0 0 1-2.377-.815 3.99 3.99 0 0 1-1.44-2.037c.273.053.526.079.76.079.378 0 .743-.05 1.095-.147a4 4 0 0 1-2.354-1.411 3.966 3.966 0 0 1-.937-2.612v-.05a4.088 4.088 0 0 0 1.855.509 4.114 4.114 0 0 1-1.343-1.465A3.955 3.955 0 0 1 .83 3.492c0-.67.186-1.334.557-1.992a11.406 11.406 0 0 0 3.73 2.974 11.813 11.813 0 0 0 4.717 1.235 4.3 4.3 0 0 1-.088-.947c0-1.133.399-2.098 1.196-2.896C11.74 1.07 12.705.67 13.838.67c1.165 0 2.171.43 3.017 1.289a8.159 8.159 0 0 0 2.588-.996 3.935 3.935 0 0 1-1.806 2.275A7.8 7.8 0 0 0 20 2.584z" fill="#FFF" fill-rule="evenodd"></path></svg></svg>