<?xml version="1.0" standalone="no"?>
<!DOCTYPE svg PUBLIC "-//W3C//DTD SVG 20010904//EN"
 "http://www.w3.org/TR/2001/REC-SVG-20010904/DTD/svg10.dtd">
<svg version="1.0" xmlns="http://www.w3.org/2000/svg"
 width="300.000000pt" height="300.000000pt" viewBox="0 0 300.000000 300.000000"
 preserveAspectRatio="xMidYMid meet">
<metadata>
Created by potrace 1.11, written by Peter Selinger 2001-2013
</metadata>
<g transform="translate(0.000000,300.000000) scale(0.100000,-0.100000)"
fill="#000000" stroke="none">
<path d="M0 1500 l0 -1500 1500 0 1500 0 0 1500 0 1500 -1500 0 -1500 0 0
-1500z m1595 473 c133 -70 190 -248 122 -380 -34 -67 -87 -110 -244 -201 -71
-40 -145 -90 -166 -110 -38 -36 -67 -81 -67 -102 0 -7 82 -10 250 -10 l250 0
0 -60 0 -60 -325 0 c-371 0 -335 -12 -310 102 31 150 80 208 269 319 66 39
140 86 163 105 83 68 95 179 26 255 -65 72 -181 77 -254 12 -39 -35 -53 -65
-64 -140 l-7 -43 -64 0 -64 0 6 48 c18 149 87 245 204 283 14 5 72 7 130 6 84
-2 113 -7 145 -24z m-697 -65 l-3 -63 -197 -3 c-109 -1 -198 -3 -199 -5 -4
-16 -36 -233 -35 -234 1 -1 20 6 42 17 139 69 330 8 408 -130 29 -51 31 -61
31 -155 -1 -88 -4 -107 -28 -156 -38 -79 -110 -143 -182 -165 -80 -23 -224
-16 -281 14 -91 47 -138 109 -151 197 l-6 45 67 0 c53 0 66 -3 66 -15 0 -31
40 -93 72 -113 145 -89 310 12 309 188 0 114 -66 187 -178 197 -68 6 -111 -9
-165 -56 -29 -25 -44 -31 -81 -31 -25 0 -48 4 -51 9 -3 5 10 121 29 257 19
137 35 252 35 257 0 4 113 7 250 7 l251 0 -3 -62z m1282 -83 l135 -135 137
137 138 138 47 -48 48 -47 -133 -133 c-72 -73 -132 -137 -132 -142 0 -5 60
-69 132 -142 l133 -133 -48 -47 -47 -48 -138 138 -137 137 -138 -137 -137
-138 -47 48 -48 47 138 138 137 137 -137 137 -138 138 45 45 c24 25 47 45 50
45 3 0 66 -61 140 -135z"/>
</g>
</svg>
