<?xml version="1.0" encoding="UTF-8"?>
<svg width="82px" height="35px" viewBox="0 0 82 35" version="1.1" xmlns="http://www.w3.org/2000/svg" xmlns:xlink="http://www.w3.org/1999/xlink">
    <!-- Generator: Sketch 51.3 (57544) - http://www.bohemiancoding.com/sketch -->
    <title>52X FNL</title>
    <desc>Created with Sketch.</desc>
    <defs></defs>
    <g id="Page-1" stroke="none" stroke-width="1" fill="none" fill-rule="evenodd">
        <g id="52X-FNL" fill-rule="nonzero">
            <g id="Group" fill="#231F20">
                <path d="M19.8253165,14.7046414 C17.7147679,12.7324895 15.0852321,11.7291139 12.0405063,11.7291139 C10.414346,11.7291139 8.96118143,12.0059072 7.71561181,12.4902954 C7.19662447,12.6978903 6.67763713,13.0092827 6.12405063,13.3898734 L7.3350211,5.39746835 L21.1746835,5.39746835 L21.1746835,0.830379747 L3.77130802,0.830379747 L1.21097046,18.8911392 L5.25907173,19.1333333 L5.3628692,18.9949367 C6.05485232,18.0607595 6.88523207,17.3341772 7.81940928,16.8151899 C8.78818565,16.2962025 9.92995781,16.0540084 11.2793249,16.0540084 C13.1130802,16.0540084 14.7392405,16.6421941 16.0540084,17.8185654 C17.3687764,18.9949367 18.0261603,20.6902954 18.0261603,22.835443 C18.0261603,24.6345992 17.4725738,26.2953586 16.3308017,27.7485232 C15.2236287,29.2016878 13.52827,29.92827 11.2101266,29.92827 C9.99915612,29.92827 8.92658228,29.7206751 7.99240506,29.2708861 C6.19324895,28.4059072 5.18987342,26.9181435 4.94767932,24.7037975 L4.91308017,24.4270042 L0.0691983122,24.4270042 L0.103797468,24.7729958 C0.345991561,27.921519 1.55696203,30.3088608 3.63291139,31.8658228 C5.70886076,33.3881857 8.13080169,34.1493671 10.8295359,34.1493671 C15.0506329,34.1493671 18.1991561,32.9383966 20.1367089,30.5164557 C22.0742616,28.1291139 23.043038,25.3265823 23.043038,22.2126582 C23.043038,19.2371308 21.935865,16.6767932 19.8253165,14.7046414 Z" id="Shape"></path>
                <path d="M34.6683544,25.049789 C35.4987342,24.3232068 36.6405063,23.5620253 38.0936709,22.7662447 L41.2075949,21.0362869 C43.9409283,19.5139241 45.878481,18.164557 46.9510549,17.0919831 C48.8194093,15.1890295 49.7881857,12.8708861 49.7881857,10.2067511 C49.7881857,7.68101266 48.8886076,5.3628692 47.1586498,3.28691983 C45.3940928,1.21097046 42.556962,0.172995781 38.785654,0.172995781 C34.2185654,0.172995781 30.9662447,1.79915612 29.1670886,5.05147679 C28.1637131,6.88523207 27.6101266,9.23797468 27.5755274,12.1097046 L27.5755274,12.421097 L32.350211,12.421097 L32.350211,12.1097046 C32.4194093,10.1375527 32.7308017,8.61518987 33.2843882,7.50801688 C34.3223629,5.50126582 36.121519,4.4978903 38.785654,4.4978903 C40.5848101,4.4978903 42.0379747,5.01687764 43.1105485,6.08945148 C44.1831224,7.12742616 44.7021097,8.58059072 44.7021097,10.3797468 C44.7021097,11.9021097 44.1139241,13.2860759 42.9375527,14.4624473 C42.1763713,15.2236287 40.8270042,16.1924051 38.8894515,17.2995781 L34.5299578,19.8253165 C31.5890295,21.5552743 29.5476793,23.492827 28.5097046,25.6033755 C27.5063291,27.7139241 26.8835443,30.2050633 26.7451477,33.0075949 L26.7105485,33.3535865 L49.6151899,33.3535865 L49.6151899,28.8556962 L32.0042194,28.8556962 C32.4540084,27.5063291 33.3535865,26.2261603 34.6683544,25.049789 Z" id="Shape"></path>
            </g>
            <rect id="Rectangle-path" fill="#EB0029" x="55.9814346" y="28.8902954" width="25.8109705" height="4.4978903"></rect>
            <rect id="Rectangle-path" fill="#231F20" transform="translate(68.880133, 13.235376) rotate(-45.000000) translate(-68.880133, -13.235376) " x="66.6312096" y="-2.07460368" width="4.49784716" height="30.6199595"></rect>
            <rect id="Rectangle-path" fill="#231F20" transform="translate(68.881232, 13.263279) rotate(-44.991897) translate(-68.881232, -13.263279) " x="53.5712518" y="11.014355" width="30.6199598" height="4.49784721"></rect>
        </g>
    </g>
</svg>