<?xml version="1.0" encoding="UTF-8"?>
<svg width="83px" height="36px" viewBox="0 0 83 36" version="1.1" xmlns="http://www.w3.org/2000/svg" xmlns:xlink="http://www.w3.org/1999/xlink">
    <!-- Generator: Sketch 50.2 (55047) - http://www.bohemiancoding.com/sketch -->
    <title>logo_black</title>
    <desc>Created with Sketch.</desc>
    <defs></defs>
    <g id="Page-1" stroke="none" stroke-width="1" fill="none" fill-rule="evenodd">
        <g id="logo_black" transform="translate(1.000000, 1.000000)">
            <path d="M4.17217281,24.8361612 C4.44006777,27.1823966 5.50388254,28.804878 7.3628406,29.7044008 C8.31483835,30.1609226 9.41592546,30.3891835 10.6653254,30.3891835 C13.0453198,30.3891835 14.807991,29.6129374 15.953339,28.0588547 C17.098687,26.504772 17.6717493,24.7836691 17.6717493,22.8939555 C17.6717493,20.6089608 16.991529,18.8409332 15.630312,17.5922587 C14.269095,16.3419936 12.6361005,15.7176564 10.732105,15.7176564 C9.34914584,15.7176564 8.16264295,15.9920467 7.17337286,16.5400318 C6.18410278,17.0888123 5.34003953,17.8507423 4.64118311,18.8258218 L1.16010165,18.6206257 L3.593675,1 L20.1930679,1 L20.1930679,4.97587487 L6.60496965,4.97587487 L5.24375265,14.0721103 C5.98686997,13.4931071 6.69349146,13.0588547 7.3628406,12.7693531 C8.55322603,12.266702 9.92919667,12.0153765 11.491529,12.0153765 C14.4212904,12.0153765 16.9053367,12.983298 18.9428914,14.9175504 C20.9804461,16.8525981 22,19.3054083 22,22.2767762 C22,25.3698303 21.0666384,28.0970308 19.2006918,30.4583775 C17.3331922,32.8197243 14.3537343,34 10.2638712,34 C7.66024283,34 5.3578992,33.25 3.35761683,31.7492047 C1.35733446,30.2492047 0.238387689,27.9443266 0,24.8361612 L4.17217281,24.8361612 Z" id="Fill-1" fill="#000000"></path>
            <path d="M4.17217281,24.8361612 C4.44006777,27.1823966 5.50388254,28.804878 7.3628406,29.7044008 C8.31483835,30.1609226 9.41592546,30.3891835 10.6653254,30.3891835 C13.0453198,30.3891835 14.807991,29.6129374 15.953339,28.0588547 C17.098687,26.504772 17.6717493,24.7836691 17.6717493,22.8939555 C17.6717493,20.6089608 16.991529,18.8409332 15.630312,17.5922587 C14.269095,16.3419936 12.6361005,15.7176564 10.732105,15.7176564 C9.34914584,15.7176564 8.16264295,15.9920467 7.17337286,16.5400318 C6.18410278,17.0888123 5.34003953,17.8507423 4.64118311,18.8258218 L1.16010165,18.6206257 L3.593675,1 L20.1930679,1 L20.1930679,4.97587487 L6.60496965,4.97587487 L5.24375265,14.0721103 C5.98686997,13.4931071 6.69349146,13.0588547 7.3628406,12.7693531 C8.55322603,12.266702 9.92919667,12.0153765 11.491529,12.0153765 C14.4212904,12.0153765 16.9053367,12.983298 18.9428914,14.9175504 C20.9804461,16.8525981 22,19.3054083 22,22.2767762 C22,25.3698303 21.0666384,28.0970308 19.2006918,30.4583775 C17.3331922,32.8197243 14.3537343,34 10.2638712,34 C7.66024283,34 5.3578992,33.25 3.35761683,31.7492047 C1.35733446,30.2492047 0.238387689,27.9443266 0,24.8361612 L4.17217281,24.8361612 Z" id="Stroke-3" stroke="#000000" stroke-width="0.8"></path>
            <path d="M28.6998629,24.8292163 C29.6843604,22.7956989 31.6077266,20.947399 34.4668682,19.2850915 L38.7335396,16.812942 C40.6445319,15.6993122 41.9855521,14.7484258 42.7558266,13.9602829 C43.9700144,12.725758 44.5778817,11.3129904 44.5778817,9.72120508 C44.5778817,7.86128064 44.0218301,6.38496561 42.9112736,5.29226 C41.7999438,4.19877942 40.3181706,3.65242662 38.4667276,3.65242662 C35.7259113,3.65242662 33.829613,4.69475928 32.7770591,6.77864962 C32.2148205,7.89537925 31.9039266,9.44376635 31.8443773,11.4238109 L27.7780082,11.4238109 C27.8220902,8.64787368 28.3332865,6.38341567 29.3108236,4.63198683 C31.0439414,1.54451225 34.1033852,0 38.4891553,0 C42.1332654,0 44.7959715,0.987309891 46.4780469,2.96192967 C48.159349,4.93654945 49,7.1335852 49,9.55303691 C49,12.1065582 48.1036665,14.2888695 46.3109994,16.0999709 C45.2746863,17.1547031 43.4147362,18.4310762 40.7334693,19.9306403 L37.6887194,21.6223966 C36.2371076,22.424489 35.0963898,23.1893829 34.2665659,23.9163034 C32.7847928,25.2081759 31.8513376,26.6410927 31.4662003,28.2142788 L48.844553,28.2142788 L48.844553,32 L27,32 C27.1477133,29.2535116 27.714592,26.8635087 28.6998629,24.8292163" id="Fill-5" fill="#000000"></path>
            <path d="M28.6998629,24.8292163 C29.6843604,22.7956989 31.6077266,20.947399 34.4668682,19.2850915 L38.7335396,16.812942 C40.6445319,15.6993122 41.9855521,14.7484258 42.7558266,13.9602829 C43.9700144,12.725758 44.5778817,11.3129904 44.5778817,9.72120508 C44.5778817,7.86128064 44.0218301,6.38496561 42.9112736,5.29226 C41.7999438,4.19877942 40.3181706,3.65242662 38.4667276,3.65242662 C35.7259113,3.65242662 33.829613,4.69475928 32.7770591,6.77864962 C32.2148205,7.89537925 31.9039266,9.44376635 31.8443773,11.4238109 L27.7780082,11.4238109 C27.8220902,8.64787368 28.3332865,6.38341567 29.3108236,4.63198683 C31.0439414,1.54451225 34.1033852,0 38.4891553,0 C42.1332654,0 44.7959715,0.987309891 46.4780469,2.96192967 C48.159349,4.93654945 49,7.1335852 49,9.55303691 C49,12.1065582 48.1036665,14.2888695 46.3109994,16.0999709 C45.2746863,17.1547031 43.4147362,18.4310762 40.7334693,19.9306403 L37.6887194,21.6223966 C36.2371076,22.424489 35.0963898,23.1893829 34.2665659,23.9163034 C32.7847928,25.2081759 31.8513376,26.6410927 31.4662003,28.2142788 L48.844553,28.2142788 L48.844553,32 L27,32 C27.1477133,29.2535116 27.714592,26.8635087 28.6998629,24.8292163 Z" id="Stroke-7" stroke="#000000" stroke-width="0.8"></path>
            <path d="M56,31 L82,31" id="Stroke-9" stroke="#FF0000" stroke-width="5.718"></path>
            <polygon id="Fill-11" fill="#000000" points="77.7924917 26 56 4.20750825 59.2075083 1 81 22.7924917"></polygon>
            <polygon id="Fill-13" fill="#000000" points="59.2075083 26 56 22.7924917 77.7924917 1 81 4.20750825"></polygon>
        </g>
    </g>
</svg>