<?xml version="1.0" encoding="UTF-8"?>
<svg width="20px" height="20px" viewBox="0 0 20 20" version="1.1" xmlns="http://www.w3.org/2000/svg" xmlns:xlink="http://www.w3.org/1999/xlink">
    <!-- Generator: Sketch 51.3 (57544) - http://www.bohemiancoding.com/sketch -->
    <title>social_linkedin</title>
    <desc>Created with Sketch.</desc>
    <defs></defs>
    <g id="Page-1" stroke="none" stroke-width="1" fill="none" fill-rule="evenodd">
        <path d="M0.419921875,7.08007812 L4.58007812,7.08007812 L4.58007812,20 L0.419921875,20 L0.419921875,7.08007812 Z M7.08007812,20 L7.08007812,10 L7.01171875,7.08007812 L11.1132812,7.08007812 L11.25,8.8671875 C11.6927105,8.19661123 12.2298146,7.6627624 12.8613281,7.265625 C13.4928417,6.8684876 14.2057252,6.66992188 15,6.66992188 C16.4974033,6.66992188 17.7050735,7.18261206 18.6230469,8.20800781 C19.5410202,9.23340356 20,10.6640533 20,12.5 L20,20 L15.8300781,20 L15.8300781,12.9199219 C15.8300781,11.9303336 15.6201193,11.1962915 15.2001953,10.7177734 C14.7802713,10.2392554 14.2350294,10 13.5644531,10 C12.9003873,10 12.348635,10.2164692 11.9091797,10.6494141 C11.4697244,11.0823589 11.25,11.6992147 11.25,12.5 L11.25,20 L7.08007812,20 Z M2.48046875,5 L2.45117188,5 C1.72851201,5 1.1393252,4.78027563 0.68359375,4.34082031 C0.227862305,3.90136499 0,3.35612305 0,2.70507812 C0,2.04752275 0.232745068,1.50228081 0.698242188,1.06933594 C1.16373931,0.636391064 1.77082959,0.419921875 2.51953125,0.419921875 C3.25521201,0.419921875 3.84928159,0.636391064 4.30175781,1.06933594 C4.75423403,1.50228081 4.9869791,2.04752275 5,2.70507812 C5,3.3626335 4.76888252,3.90950303 4.30664062,4.34570312 C3.84439873,4.78190322 3.23568086,5 2.48046875,5 Z" id="social_linkedin" fill="#FFFFFF"></path>
    </g>
</svg>