<?xml version="1.0" encoding="UTF-8"?>
<svg width="20px" height="20px" viewBox="0 0 20 20" version="1.1" xmlns="http://www.w3.org/2000/svg" xmlns:xlink="http://www.w3.org/1999/xlink">
    <!-- Generator: Sketch 51.3 (57544) - http://www.bohemiancoding.com/sketch -->
    <title>social_instagram</title>
    <desc>Created with Sketch.</desc>
    <defs></defs>
    <g id="Page-1" stroke="none" stroke-width="1" fill="none" fill-rule="evenodd">
        <path d="M17.0800781,0 C17.8873738,0 18.5758435,0.284827881 19.1455078,0.854492188 C19.7151721,1.42415649 20,2.11262617 20,2.91992188 L20,17.0800781 C20,17.8873738 19.7151721,18.5758435 19.1455078,19.1455078 C18.5758435,19.7151721 17.8873738,20 17.0800781,20 L2.91992188,20 C2.11262617,20 1.42415649,19.7151721 0.854492188,19.1455078 C0.284827881,18.5758435 0,17.8873738 0,17.0800781 L0,2.91992188 C0,2.11262617 0.284827881,1.42415649 0.854492188,0.854492188 C1.42415649,0.284827881 2.11262617,0 2.91992188,0 L17.0800781,0 Z M12.6464844,7.35351562 C11.9173141,6.61783486 11.0351614,6.25 10,6.25 C8.96483857,6.25 8.08105835,6.61620728 7.34863281,7.34863281 C6.61620728,8.08105835 6.25,8.96483857 6.25,10 C6.25,11.0351614 6.61620728,11.9189417 7.34863281,12.6513672 C8.08105835,13.3837927 8.96483857,13.75 10,13.75 C11.0351614,13.75 11.9189417,13.3837927 12.6513672,12.6513672 C13.3837927,11.9189417 13.75,11.0351614 13.75,10 C13.75,8.96483857 13.3821651,8.08268594 12.6464844,7.35351562 Z M17.9199219,17.5 L17.9199219,8.75 L15.703125,8.75 C15.7877608,9.1341165 15.8300781,9.550779 15.8300781,10 C15.8300781,11.0546928 15.5696641,12.0296179 15.0488281,12.9248047 C14.5279922,13.8199915 13.8199915,14.5279922 12.9248047,15.0488281 C12.0296179,15.5696641 11.0546928,15.8300781 10,15.8300781 C8.94530723,15.8300781 7.97038208,15.5696641 7.07519531,15.0488281 C6.18000854,14.5279922 5.47200781,13.8199915 4.95117188,12.9248047 C4.43033594,12.0296179 4.16992188,11.0546928 4.16992188,10 C4.16992188,9.550779 4.21223916,9.1341165 4.296875,8.75 L2.08007812,8.75 L2.08007812,17.5 C2.08007812,17.6171881 2.12076782,17.7164709 2.20214844,17.7978516 C2.28352905,17.8792322 2.38281191,17.9199219 2.5,17.9199219 L17.5,17.9199219 C17.6171881,17.9199219 17.7164709,17.8792322 17.7978516,17.7978516 C17.8792322,17.7164709 17.9199219,17.6171881 17.9199219,17.5 Z M17.9199219,5 L17.9199219,2.5 C17.9199219,2.38281191 17.8792322,2.28352905 17.7978516,2.20214844 C17.7164709,2.12076782 17.6171881,2.08007812 17.5,2.08007812 L15,2.08007812 C14.8828119,2.08007812 14.7835291,2.12076782 14.7021484,2.20214844 C14.6207678,2.28352905 14.5800781,2.38281191 14.5800781,2.5 L14.5800781,5 C14.5800781,5.11718809 14.6207678,5.21647095 14.7021484,5.29785156 C14.7835291,5.37923218 14.8828119,5.41992188 15,5.41992188 L17.5,5.41992188 C17.6171881,5.41992188 17.7164709,5.37923218 17.7978516,5.29785156 C17.8792322,5.21647095 17.9199219,5.11718809 17.9199219,5 Z" id="social_instagram" fill="#FFFFFF"></path>
    </g>
</svg>