<?xml version="1.0" encoding="UTF-8"?>
<svg width="20px" height="17px" viewBox="0 0 20 17" version="1.1" xmlns="http://www.w3.org/2000/svg" xmlns:xlink="http://www.w3.org/1999/xlink">
    <!-- Generator: Sketch 51.3 (57544) - http://www.bohemiancoding.com/sketch -->
    <title>social_twitter</title>
    <desc>Created with Sketch.</desc>
    <defs></defs>
    <g id="Page-1" stroke="none" stroke-width="1" fill="none" fill-rule="evenodd">
        <path d="M20,2.58398438 C19.4531223,3.41081143 18.7727905,4.12043975 17.9589844,4.71289062 L17.9589844,5.25 C17.9589844,6.16146289 17.8434256,7.07779487 17.6123047,7.99902344 C17.3811837,8.920252 17.0491558,9.81542534 16.6162109,10.6845703 C16.1832661,11.5537153 15.6282586,12.3658816 14.9511719,13.1210938 C14.2740852,13.8763059 13.5156292,14.535479 12.6757812,15.0986328 C11.8359333,15.6617867 10.8675185,16.1061182 9.77050781,16.4316406 C8.67349712,16.7571631 7.51628213,16.9199219 6.29882812,16.9199219 C3.83136787,16.9199219 1.73177949,16.3632868 0,15.25 C0.299480664,15.2955731 0.624998242,15.3183594 0.9765625,15.3183594 C1.88802539,15.3183594 2.77994355,15.1425799 3.65234375,14.7910156 C4.52474395,14.4394514 5.32877236,13.9674509 6.06445312,13.375 C5.18554248,13.3684896 4.39290718,13.0966824 3.68652344,12.5595703 C2.9801397,12.0224583 2.50000127,11.3437541 2.24609375,10.5234375 C2.51953262,10.5755211 2.77343633,10.6015625 3.0078125,10.6015625 C3.38541855,10.6015625 3.74999824,10.5527349 4.1015625,10.4550781 C3.15754736,10.2662751 2.37305,9.7959022 1.74804688,9.04394531 C1.12304375,8.29198843 0.810546875,7.42122891 0.810546875,6.43164062 L0.810546875,6.3828125 C1.3964873,6.70182451 2.0149707,6.87109365 2.66601562,6.890625 C2.09960654,6.51301895 1.65201987,6.02474258 1.32324219,5.42578125 C0.994464502,4.82681992 0.830078125,4.18229512 0.830078125,3.4921875 C0.830078125,2.82161123 1.01562314,2.15755537 1.38671875,1.5 C2.41536973,2.75000625 3.65884687,3.74120728 5.1171875,4.47363281 C6.57552813,5.20605835 8.14777803,5.61783809 9.83398438,5.70898438 C9.77539033,5.45507686 9.74609375,5.1393248 9.74609375,4.76171875 C9.74609375,3.62890059 10.1448528,2.66374097 10.9423828,1.86621094 C11.7399128,1.06868091 12.7050725,0.669921875 13.8378906,0.669921875 C15.003261,0.669921875 16.0091104,1.09960508 16.8554688,1.95898438 C17.786463,1.77018135 18.6490846,1.43815342 19.4433594,0.962890625 C19.1308578,1.95247891 18.5286503,2.71093486 17.6367188,3.23828125 C18.4505249,3.14713496 19.2382774,2.92903818 20,2.58398438 Z" id="social_twitter" fill="#FFFFFF"></path>
    </g>
</svg>