<?xml version="1.0" encoding="UTF-8"?>
<svg width="20px" height="20px" viewBox="0 0 20 20" version="1.1" xmlns="http://www.w3.org/2000/svg" xmlns:xlink="http://www.w3.org/1999/xlink">
    <!-- Generator: Sketch 51.3 (57544) - http://www.bohemiancoding.com/sketch -->
    <title>social_facebook</title>
    <desc>Created with Sketch.</desc>
    <defs></defs>
    <g id="Page-1" stroke="none" stroke-width="1" fill="none" fill-rule="evenodd">
        <path d="M20,1.25 L20,18.75 C20,19.0885434 19.8763033,19.3815092 19.6289062,19.6289062 C19.3815092,19.8763033 19.0885434,20 18.75,20 L13.75,20 L13.75,12.2265625 L16.25,12.2265625 L16.6699219,9.34570312 L13.75,9.34570312 L13.75,7.08007812 C13.75,6.66340937 13.8557932,6.34440215 14.0673828,6.12304688 C14.2789724,5.9016916 14.5898417,5.79101562 15,5.79101562 L16.875,5.79101562 L16.875,3.19335938 C16.3151014,3.10221309 15.6315145,3.05664062 14.8242188,3.05664062 C13.4830662,3.05664062 12.4593134,3.39680649 11.7529297,4.07714844 C11.0465459,4.75749038 10.6933594,5.68358789 10.6933594,6.85546875 L10.6933594,9.34570312 L8.19335938,9.34570312 L8.19335938,12.2265625 L10.6933594,12.2265625 L10.6933594,20 L1.25,20 C0.911456641,20 0.61849082,19.8763033 0.37109375,19.6289062 C0.12369668,19.3815092 0,19.0885434 0,18.75 L0,1.25 C0,0.911456641 0.12369668,0.61849082 0.37109375,0.37109375 C0.61849082,0.12369668 0.911456641,0 1.25,0 L18.75,0 C19.0885434,0 19.3815092,0.12369668 19.6289062,0.37109375 C19.8763033,0.61849082 20,0.911456641 20,1.25 Z" id="social_facebook" fill="#FFFFFF"></path>
    </g>
</svg>